<svg xmlns="http://www.w3.org/2000/svg" xmlns:xlink="http://www.w3.org/1999/xlink" version="1.1" class="marks" width="1572" height="1064" viewBox="0 0 786 532"><rect width="786" height="532" fill="#1e1e1e"/><g fill="none" stroke-miterlimit="10" transform="translate(86,80)"><g class="mark-group role-frame root" role="graphics-object" aria-roledescription="group mark container"><g transform="translate(0,0)"><path class="background" aria-hidden="true" d="M0,0h561v360h-561Z"/><g><g class="mark-group role-scope" role="graphics-object" aria-roledescription="group mark container"><g transform="translate(0,0)"><path class="background" aria-hidden="true" d="M0,0h0v0h0Z"/><g><g class="mark-line role-mark" role="graphics-symbol" aria-roledescription="line mark container"><path d="M0,282.818L35.063,269.47L70.125,263.763L105.188,278.931L140.25,281.226L175.313,276.392L210.375,276.824L245.438,276.189L280.5,279.953L315.563,278.497L350.625,280.408L385.688,274.162L420.75,273.683L455.813,275.384L490.875,271.079L525.938,270.767L561,268.044" fill-opacity="1" stroke="#848ebd" stroke-width="2"/></g><g class="mark-symbol role-mark" role="graphics-symbol" aria-roledescription="symbol mark container"><path transform="translate(0,282.8182035546346)" d="M0,0" fill="#848ebd" stroke="#dedede" stroke-width="1" opacity="1"/><path transform="translate(35.0625,269.4695863128882)" d="M0,0" fill="#848ebd" stroke="#dedede" stroke-width="1" opacity="1"/><path transform="translate(70.125,263.76279552132746)" d="M0,0" fill="#848ebd" stroke="#dedede" stroke-width="1" opacity="1"/><path transform="translate(105.1875,278.9311089303239)" d="M0,0" fill="#848ebd" stroke="#dedede" stroke-width="1" opacity="1"/><path transform="translate(140.25,281.22586530177875)" d="M0,0" fill="#848ebd" stroke="#dedede" stroke-width="1" opacity="1"/><path transform="translate(175.3125,276.3923127774991)" d="M0,0" fill="#848ebd" stroke="#dedede" stroke-width="1" opacity="1"/><path transform="translate(210.375,276.8237319081763)" d="M0,0" fill="#848ebd" stroke="#dedede" stroke-width="1" opacity="1"/><path transform="translate(245.4375,276.18898723991265)" d="M0,0" fill="#848ebd" stroke="#dedede" stroke-width="1" opacity="1"/><path transform="translate(280.5,279.95343322400817)" d="M0,0" fill="#848ebd" stroke="#dedede" stroke-width="1" opacity="1"/><path transform="translate(315.5625,278.4966160285022)" d="M0,0" fill="#848ebd" stroke="#dedede" stroke-width="1" opacity="1"/><path transform="translate(350.625,280.4081632653061)" d="M0,0" fill="#848ebd" stroke="#dedede" stroke-width="1" opacity="1"/><path transform="translate(385.6875,274.1622800421116)" d="M0,0" fill="#848ebd" stroke="#dedede" stroke-width="1" opacity="1"/><path transform="translate(420.75,273.68342217718845)" d="M0,0" fill="#848ebd" stroke="#dedede" stroke-width="1" opacity="1"/><path transform="translate(455.8125,275.38358589391845)" d="M0,0" fill="#848ebd" stroke="#dedede" stroke-width="1" opacity="1"/><path transform="translate(490.875,271.0792381848107)" d="M0,0" fill="#848ebd" stroke="#dedede" stroke-width="1" opacity="1"/><path transform="translate(525.9375,270.76668563044586)" d="M0,0" fill="#848ebd" stroke="#dedede" stroke-width="1" opacity="1"/><path transform="translate(561,268.04358203074685)" d="M0,0" fill="#848ebd" stroke="#dedede" stroke-width="1" opacity="1"/></g></g><path class="foreground" aria-hidden="true" d="" display="none"/></g><g transform="translate(0,0)"><path class="background" aria-hidden="true" d="M0,0h0v0h0Z"/><g><g class="mark-line role-mark" role="graphics-symbol" aria-roledescription="line mark container"><path d="M0,43.085L35.063,57.807L70.125,95.401L105.188,104.803L140.25,97.388L175.313,90.121L210.375,116.967L245.438,106.44L280.5,113.156L315.563,97.562L350.625,94.119L385.688,98.602L420.75,90.572L455.813,97.511L490.875,91.386L525.938,71.873L561,56.09" fill-opacity="1" stroke="#eeca3b" stroke-width="2"/></g><g class="mark-symbol role-mark" role="graphics-symbol" aria-roledescription="symbol mark container"><path transform="translate(0,43.084525261938225)" d="M0,0" fill="#eeca3b" stroke="#dedede" stroke-width="1" opacity="1"/><path transform="translate(35.0625,57.80708996456289)" d="M0,0" fill="#eeca3b" stroke="#dedede" stroke-width="1" opacity="1"/><path transform="translate(70.125,95.40062225124358)" d="M0,0" fill="#eeca3b" stroke="#dedede" stroke-width="1" opacity="1"/><path transform="translate(105.1875,104.80274779195292)" d="M0,0" fill="#eeca3b" stroke="#dedede" stroke-width="1" opacity="1"/><path transform="translate(140.25,97.38787817361782)" d="M0,0" fill="#eeca3b" stroke="#dedede" stroke-width="1" opacity="1"/><path transform="translate(175.3125,90.12110329177784)" d="M0,0" fill="#eeca3b" stroke="#dedede" stroke-width="1" opacity="1"/><path transform="translate(210.375,116.9671351680329)" d="M0,0" fill="#eeca3b" stroke="#dedede" stroke-width="1" opacity="1"/><path transform="translate(245.4375,106.43982066904242)" d="M0,0" fill="#eeca3b" stroke="#dedede" stroke-width="1" opacity="1"/><path transform="translate(280.5,113.15640508314134)" d="M0,0" fill="#eeca3b" stroke="#dedede" stroke-width="1" opacity="1"/><path transform="translate(315.5625,97.56208362581621)" d="M0,0" fill="#eeca3b" stroke="#dedede" stroke-width="1" opacity="1"/><path transform="translate(350.625,94.11884090652836)" d="M0,0" fill="#eeca3b" stroke="#dedede" stroke-width="1" opacity="1"/><path transform="translate(385.6875,98.60204542036399)" d="M0,0" fill="#eeca3b" stroke="#dedede" stroke-width="1" opacity="1"/><path transform="translate(420.75,90.57151668103694)" d="M0,0" fill="#eeca3b" stroke="#dedede" stroke-width="1" opacity="1"/><path transform="translate(455.8125,97.51117816319208)" d="M0,0" fill="#eeca3b" stroke="#dedede" stroke-width="1" opacity="1"/><path transform="translate(490.875,91.38608041382557)" d="M0,0" fill="#eeca3b" stroke="#dedede" stroke-width="1" opacity="1"/><path transform="translate(525.9375,71.87307243165554)" d="M0,0" fill="#eeca3b" stroke="#dedede" stroke-width="1" opacity="1"/><path transform="translate(561,56.090346337730445)" d="M0,0" fill="#eeca3b" stroke="#dedede" stroke-width="1" opacity="1"/></g></g><path class="foreground" aria-hidden="true" d="" display="none"/></g><g transform="translate(0,0)"><path class="background" aria-hidden="true" d="M0,0h0v0h0Z"/><g><g class="mark-line role-mark" role="graphics-symbol" aria-roledescription="line mark container"><path d="M0,310.55L35.063,304.941L70.125,296.729L105.188,299.991L140.25,293.282L175.313,285.338L210.375,268.719L245.438,270.259L280.5,264.519L315.563,243.338L350.625,255.332L385.688,255.496L420.75,267.589L455.813,248.534L490.875,261.62L525.938,281.162L561,295.136" fill-opacity="1" stroke="#019dfe" stroke-width="2"/></g><g class="mark-symbol role-mark" role="graphics-symbol" aria-roledescription="symbol mark container"><path transform="translate(0,310.5502387944406)" d="M0,0" fill="#019dfe" stroke="#dedede" stroke-width="1" opacity="1"/><path transform="translate(35.0625,304.94100163849055)" d="M0,0" fill="#019dfe" stroke="#dedede" stroke-width="1" opacity="1"/><path transform="translate(70.125,296.72914786149147)" d="M0,0" fill="#019dfe" stroke="#dedede" stroke-width="1" opacity="1"/><path transform="translate(105.1875,299.9905789990186)" d="M0,0" fill="#019dfe" stroke="#dedede" stroke-width="1" opacity="1"/><path transform="translate(140.25,293.28181219277354)" d="M0,0" fill="#019dfe" stroke="#dedede" stroke-width="1" opacity="1"/><path transform="translate(175.3125,285.33792178687133)" d="M0,0" fill="#019dfe" stroke="#dedede" stroke-width="1" opacity="1"/><path transform="translate(210.375,268.7187850662812)" d="M0,0" fill="#019dfe" stroke="#dedede" stroke-width="1" opacity="1"/><path transform="translate(245.4375,270.2586504195885)" d="M0,0" fill="#019dfe" stroke="#dedede" stroke-width="1" opacity="1"/><path transform="translate(280.5,264.51898528413386)" d="M0,0" fill="#019dfe" stroke="#dedede" stroke-width="1" opacity="1"/><path transform="translate(315.5625,243.33841039428896)" d="M0,0" fill="#019dfe" stroke="#dedede" stroke-width="1" opacity="1"/><path transform="translate(350.625,255.33205547412337)" d="M0,0" fill="#019dfe" stroke="#dedede" stroke-width="1" opacity="1"/><path transform="translate(385.6875,255.49631523537374)" d="M0,0" fill="#019dfe" stroke="#dedede" stroke-width="1" opacity="1"/><path transform="translate(420.75,267.5887546965568)" d="M0,0" fill="#019dfe" stroke="#dedede" stroke-width="1" opacity="1"/><path transform="translate(455.8125,248.53409415815506)" d="M0,0" fill="#019dfe" stroke="#dedede" stroke-width="1" opacity="1"/><path transform="translate(490.875,261.6200329179403)" d="M0,0" fill="#019dfe" stroke="#dedede" stroke-width="1" opacity="1"/><path transform="translate(525.9375,281.1620804263856)" d="M0,0" fill="#019dfe" stroke="#dedede" stroke-width="1" opacity="1"/><path transform="translate(561,295.1361180776021)" d="M0,0" fill="#019dfe" stroke="#dedede" stroke-width="1" opacity="1"/></g></g><path class="foreground" aria-hidden="true" d="" display="none"/></g><g transform="translate(0,0)"><path class="background" aria-hidden="true" d="M0,0h0v0h0Z"/><g><g class="mark-line role-mark" role="graphics-symbol" aria-roledescription="line mark container"><path d="M0,218.967L35.063,210.918L70.125,201.382L105.188,184.921L140.25,192.11L175.313,199.207L210.375,198.462L245.438,206.676L280.5,193.397L315.563,220.404L350.625,191.824L385.688,196.304L420.75,190.748L455.813,208.512L490.875,200.357L525.938,198.289L561,199.402" fill-opacity="1" stroke="#f58518" stroke-width="2"/></g><g class="mark-symbol role-mark" role="graphics-symbol" aria-roledescription="symbol mark container"><path transform="translate(0,218.9672063809308)" d="M0,0" fill="#f58518" stroke="#dedede" stroke-width="1" opacity="1"/><path transform="translate(35.0625,210.91831680024387)" d="M0,0" fill="#f58518" stroke="#dedede" stroke-width="1" opacity="1"/><path transform="translate(70.125,201.38210835621962)" d="M0,0" fill="#f58518" stroke="#dedede" stroke-width="1" opacity="1"/><path transform="translate(105.1875,184.92129538763493)" d="M0,0" fill="#f58518" stroke="#dedede" stroke-width="1" opacity="1"/><path transform="translate(140.25,192.10991739725333)" d="M0,0" fill="#f58518" stroke="#dedede" stroke-width="1" opacity="1"/><path transform="translate(175.3125,199.20689768342484)" d="M0,0" fill="#f58518" stroke="#dedede" stroke-width="1" opacity="1"/><path transform="translate(210.375,198.46164818653835)" d="M0,0" fill="#f58518" stroke="#dedede" stroke-width="1" opacity="1"/><path transform="translate(245.4375,206.67616967467524)" d="M0,0" fill="#f58518" stroke="#dedede" stroke-width="1" opacity="1"/><path transform="translate(280.5,193.3966016771689)" d="M0,0" fill="#f58518" stroke="#dedede" stroke-width="1" opacity="1"/><path transform="translate(315.5625,220.40422234878085)" d="M0,0" fill="#f58518" stroke="#dedede" stroke-width="1" opacity="1"/><path transform="translate(350.625,191.82433194272187)" d="M0,0" fill="#f58518" stroke="#dedede" stroke-width="1" opacity="1"/><path transform="translate(385.6875,196.3039554820274)" d="M0,0" fill="#f58518" stroke="#dedede" stroke-width="1" opacity="1"/><path transform="translate(420.75,190.7483652520879)" d="M0,0" fill="#f58518" stroke="#dedede" stroke-width="1" opacity="1"/><path transform="translate(455.8125,208.5117074150003)" d="M0,0" fill="#f58518" stroke="#dedede" stroke-width="1" opacity="1"/><path transform="translate(490.875,200.35739478015515)" d="M0,0" fill="#f58518" stroke="#dedede" stroke-width="1" opacity="1"/><path transform="translate(525.9375,198.28861873821)" d="M0,0" fill="#f58518" stroke="#dedede" stroke-width="1" opacity="1"/><path transform="translate(561,199.40188360445825)" d="M0,0" fill="#f58518" stroke="#dedede" stroke-width="1" opacity="1"/></g></g><path class="foreground" aria-hidden="true" d="" display="none"/></g><g transform="translate(0,0)"><path class="background" aria-hidden="true" d="M0,0h0v0h0Z"/><g><g class="mark-line role-mark" role="graphics-symbol" aria-roledescription="line mark container"><path d="M0,344.148L35.063,342.979L70.125,344.375L105.188,338.011L140.25,342.273L175.313,343.075L210.375,337.868L245.438,342.325L280.5,341.063L315.563,342.43L350.625,347.011L385.688,344.853L420.75,345.262L455.813,342.907L490.875,343.679L525.938,345.549L561,345.782" fill-opacity="1" stroke="#98d7e1" stroke-width="2"/></g><g class="mark-symbol role-mark" role="graphics-symbol" aria-roledescription="symbol mark container"><path transform="translate(0,344.14760500518054)" d="M0,0" fill="#98d7e1" stroke="#dedede" stroke-width="1" opacity="1"/><path transform="translate(35.0625,342.97875042867486)" d="M0,0" fill="#98d7e1" stroke="#dedede" stroke-width="1" opacity="1"/><path transform="translate(70.125,344.37457988438416)" d="M0,0" fill="#98d7e1" stroke="#dedede" stroke-width="1" opacity="1"/><path transform="translate(105.1875,338.0113837095191)" d="M0,0" fill="#98d7e1" stroke="#dedede" stroke-width="1" opacity="1"/><path transform="translate(140.25,342.27334921197996)" d="M0,0" fill="#98d7e1" stroke="#dedede" stroke-width="1" opacity="1"/><path transform="translate(175.3125,343.07507653934334)" d="M0,0" fill="#98d7e1" stroke="#dedede" stroke-width="1" opacity="1"/><path transform="translate(210.375,337.86758972213244)" d="M0,0" fill="#98d7e1" stroke="#dedede" stroke-width="1" opacity="1"/><path transform="translate(245.4375,342.3248649270031)" d="M0,0" fill="#98d7e1" stroke="#dedede" stroke-width="1" opacity="1"/><path transform="translate(280.5,341.06300379610065)" d="M0,0" fill="#98d7e1" stroke="#dedede" stroke-width="1" opacity="1"/><path transform="translate(315.5625,342.42983722501094)" d="M0,0" fill="#98d7e1" stroke="#dedede" stroke-width="1" opacity="1"/><path transform="translate(350.625,347.01093697147365)" d="M0,0" fill="#98d7e1" stroke="#dedede" stroke-width="1" opacity="1"/><path transform="translate(385.6875,344.85336140773046)" d="M0,0" fill="#98d7e1" stroke="#dedede" stroke-width="1" opacity="1"/><path transform="translate(420.75,345.2617799399596)" d="M0,0" fill="#98d7e1" stroke="#dedede" stroke-width="1" opacity="1"/><path transform="translate(455.8125,342.90699159888794)" d="M0,0" fill="#98d7e1" stroke="#dedede" stroke-width="1" opacity="1"/><path transform="translate(490.875,343.67916764636726)" d="M0,0" fill="#98d7e1" stroke="#dedede" stroke-width="1" opacity="1"/><path transform="translate(525.9375,345.5488516932659)" d="M0,0" fill="#98d7e1" stroke="#dedede" stroke-width="1" opacity="1"/><path transform="translate(561,345.7820443851767)" d="M0,0" fill="#98d7e1" stroke="#dedede" stroke-width="1" opacity="1"/></g></g><path class="foreground" aria-hidden="true" d="" display="none"/></g><g transform="translate(0,0)"><path class="background" aria-hidden="true" d="M0,0h0v0h0Z"/><g><g class="mark-line role-mark" role="graphics-symbol" aria-roledescription="line mark container"><path d="M0,178.318L35.063,180.219L70.125,169.686L105.188,181.48L140.25,183.429L175.313,183.286L210.375,169.286L245.438,187.685L280.5,195.866L315.563,188.673L350.625,181.812L385.688,181.834L420.75,191.513L455.813,190.116L490.875,183.719L525.938,188.035L561,185.648" fill-opacity="1" stroke="#6b93bd" stroke-width="2"/></g><g class="mark-symbol role-mark" role="graphics-symbol" aria-roledescription="symbol mark container"><path transform="translate(0,178.31820048923743)" d="M0,0" fill="#6b93bd" stroke="#dedede" stroke-width="1" opacity="1"/><path transform="translate(35.0625,180.21948152570147)" d="M0,0" fill="#6b93bd" stroke="#dedede" stroke-width="1" opacity="1"/><path transform="translate(70.125,169.68618563828767)" d="M0,0" fill="#6b93bd" stroke="#dedede" stroke-width="1" opacity="1"/><path transform="translate(105.1875,181.4802747791953)" d="M0,0" fill="#6b93bd" stroke="#dedede" stroke-width="1" opacity="1"/><path transform="translate(140.25,183.4290275173567)" d="M0,0" fill="#6b93bd" stroke="#dedede" stroke-width="1" opacity="1"/><path transform="translate(175.3125,183.28624542287693)" d="M0,0" fill="#6b93bd" stroke="#dedede" stroke-width="1" opacity="1"/><path transform="translate(210.375,169.28555126571447)" d="M0,0" fill="#6b93bd" stroke="#dedede" stroke-width="1" opacity="1"/><path transform="translate(245.4375,187.6850212668123)" d="M0,0" fill="#6b93bd" stroke="#dedede" stroke-width="1" opacity="1"/><path transform="translate(280.5,195.86645757833645)" d="M0,0" fill="#6b93bd" stroke="#dedede" stroke-width="1" opacity="1"/><path transform="translate(315.5625,188.6730328596215)" d="M0,0" fill="#6b93bd" stroke="#dedede" stroke-width="1" opacity="1"/><path transform="translate(350.625,181.81192919156612)" d="M0,0" fill="#6b93bd" stroke="#dedede" stroke-width="1" opacity="1"/><path transform="translate(385.6875,181.83411039254025)" d="M0,0" fill="#6b93bd" stroke="#dedede" stroke-width="1" opacity="1"/><path transform="translate(420.75,191.51303078172106)" d="M0,0" fill="#6b93bd" stroke="#dedede" stroke-width="1" opacity="1"/><path transform="translate(455.8125,190.1156445617856)" d="M0,0" fill="#6b93bd" stroke="#dedede" stroke-width="1" opacity="1"/><path transform="translate(490.875,183.71913943098986)" d="M0,0" fill="#6b93bd" stroke="#dedede" stroke-width="1" opacity="1"/><path transform="translate(525.9375,188.03470371590262)" d="M0,0" fill="#6b93bd" stroke="#dedede" stroke-width="1" opacity="1"/><path transform="translate(561,185.64763109841567)" d="M0,0" fill="#6b93bd" stroke="#dedede" stroke-width="1" opacity="1"/></g></g><path class="foreground" aria-hidden="true" d="" display="none"/></g><g transform="translate(0,0)"><path class="background" aria-hidden="true" d="M0,0h0v0h0Z"/><g><g class="mark-line role-mark" role="graphics-symbol" aria-roledescription="line mark container"><path d="M0,304.707L35.063,316.024L70.125,322.198L105.188,323.371L140.25,328.473L175.313,330.686L210.375,318.162L245.438,307.72L280.5,304.11L315.563,320.449L350.625,327.95L385.688,318.472L420.75,320.549L455.813,327.002L490.875,331.083L525.938,327.729L561,324.697" fill-opacity="1" stroke="#e45756" stroke-width="2"/></g><g class="mark-symbol role-mark" role="graphics-symbol" aria-roledescription="symbol mark container"><path transform="translate(0,304.706978683228)" d="M0,0" fill="#e45756" stroke="#dedede" stroke-width="1" opacity="1"/><path transform="translate(35.0625,316.0236755534669)" d="M0,0" fill="#e45756" stroke="#dedede" stroke-width="1" opacity="1"/><path transform="translate(70.125,322.19823695480994)" d="M0,0" fill="#e45756" stroke="#dedede" stroke-width="1" opacity="1"/><path transform="translate(105.1875,323.3711481844946)" d="M0,0" fill="#e45756" stroke="#dedede" stroke-width="1" opacity="1"/><path transform="translate(140.25,328.47286271727563)" d="M0,0" fill="#e45756" stroke="#dedede" stroke-width="1" opacity="1"/><path transform="translate(175.3125,330.686251986741)" d="M0,0" fill="#e45756" stroke="#dedede" stroke-width="1" opacity="1"/><path transform="translate(210.375,318.16152836683847)" d="M0,0" fill="#e45756" stroke="#dedede" stroke-width="1" opacity="1"/><path transform="translate(245.4375,307.7195079894241)" d="M0,0" fill="#e45756" stroke="#dedede" stroke-width="1" opacity="1"/><path transform="translate(280.5,304.10982874518317)" d="M0,0" fill="#e45756" stroke="#dedede" stroke-width="1" opacity="1"/><path transform="translate(315.5625,320.44925367203956)" d="M0,0" fill="#e45756" stroke="#dedede" stroke-width="1" opacity="1"/><path transform="translate(350.625,327.95016349081067)" d="M0,0" fill="#e45756" stroke="#dedede" stroke-width="1" opacity="1"/><path transform="translate(385.6875,318.47195066927355)" d="M0,0" fill="#e45756" stroke="#dedede" stroke-width="1" opacity="1"/><path transform="translate(420.75,320.54892286003786)" d="M0,0" fill="#e45756" stroke="#dedede" stroke-width="1" opacity="1"/><path transform="translate(455.8125,327.0020622570461)" d="M0,0" fill="#e45756" stroke="#dedede" stroke-width="1" opacity="1"/><path transform="translate(490.875,331.0827651069833)" d="M0,0" fill="#e45756" stroke="#dedede" stroke-width="1" opacity="1"/><path transform="translate(525.9375,327.729137347666)" d="M0,0" fill="#e45756" stroke="#dedede" stroke-width="1" opacity="1"/><path transform="translate(561,324.6971912623787)" d="M0,0" fill="#e45756" stroke="#dedede" stroke-width="1" opacity="1"/></g></g><path class="foreground" aria-hidden="true" d="" display="none"/></g><g transform="translate(0,0)"><path class="background" aria-hidden="true" d="M0,0h0v0h0Z"/><g><g class="mark-line role-mark" role="graphics-symbol" aria-roledescription="line mark container"><path d="M0,270.646L35.063,262.714L70.125,254.546L105.188,234.035L140.25,227.423L175.313,235.323L210.375,239.65L245.438,247.377L280.5,254.291L315.563,243.326L350.625,260.383L385.688,263.503L420.75,259.155L455.813,256.194L490.875,257.007L525.938,259.394L561,257.781" fill-opacity="1" stroke="#7bbf73" stroke-width="2"/></g><g class="mark-symbol role-mark" role="graphics-symbol" aria-roledescription="symbol mark container"><path transform="translate(0,270.6461244183409)" d="M0,0" fill="#7bbf73" stroke="#dedede" stroke-width="1" opacity="1"/><path transform="translate(35.0625,262.7136705998908)" d="M0,0" fill="#7bbf73" stroke="#dedede" stroke-width="1" opacity="1"/><path transform="translate(70.125,254.5456989763583)" d="M0,0" fill="#7bbf73" stroke="#dedede" stroke-width="1" opacity="1"/><path transform="translate(105.1875,234.03532875368006)" d="M0,0" fill="#7bbf73" stroke="#dedede" stroke-width="1" opacity="1"/><path transform="translate(140.25,227.42259159783103)" d="M0,0" fill="#7bbf73" stroke="#dedede" stroke-width="1" opacity="1"/><path transform="translate(175.3125,235.32268424531975)" d="M0,0" fill="#7bbf73" stroke="#dedede" stroke-width="1" opacity="1"/><path transform="translate(210.375,239.64967002035033)" d="M0,0" fill="#7bbf73" stroke="#dedede" stroke-width="1" opacity="1"/><path transform="translate(245.4375,247.37739970111508)" d="M0,0" fill="#7bbf73" stroke="#dedede" stroke-width="1" opacity="1"/><path transform="translate(280.5,254.29102800699937)" d="M0,0" fill="#7bbf73" stroke="#dedede" stroke-width="1" opacity="1"/><path transform="translate(315.5625,243.32649033813226)" d="M0,0" fill="#7bbf73" stroke="#dedede" stroke-width="1" opacity="1"/><path transform="translate(350.625,260.3833577629947)" d="M0,0" fill="#7bbf73" stroke="#dedede" stroke-width="1" opacity="1"/><path transform="translate(385.6875,263.5027823732892)" d="M0,0" fill="#7bbf73" stroke="#dedede" stroke-width="1" opacity="1"/><path transform="translate(420.75,259.1547771141586)" d="M0,0" fill="#7bbf73" stroke="#dedede" stroke-width="1" opacity="1"/><path transform="translate(455.8125,256.1936453282882)" d="M0,0" fill="#7bbf73" stroke="#dedede" stroke-width="1" opacity="1"/><path transform="translate(490.875,257.00681871620037)" d="M0,0" fill="#7bbf73" stroke="#dedede" stroke-width="1" opacity="1"/><path transform="translate(525.9375,259.39440668323505)" d="M0,0" fill="#7bbf73" stroke="#dedede" stroke-width="1" opacity="1"/><path transform="translate(561,257.78074116728925)" d="M0,0" fill="#7bbf73" stroke="#dedede" stroke-width="1" opacity="1"/></g></g><path class="foreground" aria-hidden="true" d="" display="none"/></g></g><g class="mark-text role-mark" role="graphics-object" aria-roledescription="text mark container"><text text-anchor="start" transform="translate(565,271.04358203074685)" font-family="sans-serif" font-size="11px" font-weight="600" fill="#848ebd" fill-opacity="1">PHP - 288,585 jobs</text><text text-anchor="start" transform="translate(565,59.090346337730445)" font-family="sans-serif" font-size="11px" font-weight="600" fill="#eeca3b" fill-opacity="1"><tspan>JavaScript / TypeScript</tspan><tspan x="0" dy="13">915,694 jobs</tspan></text><text text-anchor="start" transform="translate(565,298.1361180776021)" font-family="sans-serif" font-size="11px" font-weight="600" fill="#019dfe" fill-opacity="1">C/C++ - 280,742 jobs</text><text text-anchor="start" transform="translate(565,202.40188360445825)" font-family="sans-serif" font-size="11px" font-weight="600" fill="#f58518" fill-opacity="1">Java - 546,423 jobs</text><text text-anchor="start" transform="translate(565,348.7820443851767)" font-family="sans-serif" font-size="11px" font-weight="600" fill="#98d7e1" fill-opacity="1">Go - 58,739 jobs</text><text text-anchor="start" transform="translate(565,188.64763109841567)" font-family="sans-serif" font-size="11px" font-weight="600" fill="#6b93bd" fill-opacity="1">Python - 603,507 jobs</text><text text-anchor="start" transform="translate(565,327.6971912623787)" font-family="sans-serif" font-size="11px" font-weight="600" fill="#e45756" fill-opacity="1">Ruby - 134,354 jobs</text><text text-anchor="start" transform="translate(565,260.78074116728925)" font-family="sans-serif" font-size="11px" font-weight="600" fill="#7bbf73" fill-opacity="1">C# - 375,267 jobs</text></g><g class="mark-group role-title"><g transform="translate(307.413330078125,-50)"><path class="background" aria-hidden="true" d="M0,0h0v0h0Z" pointer-events="none"/><g><g class="mark-text role-title-text" role="graphics-symbol" aria-roledescription="title" aria-label="Title text 'Top 8 Most Demanded Programming Languages By Months in 2023'" pointer-events="none"><text text-anchor="middle" transform="translate(0,-2)" font-family="sans-serif" font-size="18px" font-weight="bold" fill="#d9d9d9" opacity="1">Top 8 Most Demanded Programming Languages By Months in 2023</text></g><g class="mark-text role-title-subtitle" role="graphics-symbol" aria-roledescription="subtitle" aria-label="Subtitle text 'From 01-Jan-2022 to 31-May-2023'" pointer-events="none"><text text-anchor="middle" transform="translate(0,21)" font-family="sans-serif" font-size="14px" fill="#d9d9d9" opacity="1">From 01-Jan-2022 to 31-May-2023</text></g></g><path class="foreground" aria-hidden="true" d="" pointer-events="none" display="none"/></g></g><g class="mark-group role-axis" role="graphics-symbol" aria-roledescription="axis" aria-label="X-axis titled 'Months' for a discrete scale with 17 values: Jan-2022, Feb-2022, Mar-2022, Apr-2022, May-2022, ending with May-2023"><g transform="translate(0.5,360.5)"><path class="background" aria-hidden="true" d="M0,0h0v0h0Z" pointer-events="none"/><g><g class="mark-rule role-axis-tick" pointer-events="none"><line transform="translate(0,0)" x2="0" y2="5" stroke="#888" stroke-width="1" opacity="1"/><line transform="translate(35,0)" x2="0" y2="5" stroke="#888" stroke-width="1" opacity="1"/><line transform="translate(70,0)" x2="0" y2="5" stroke="#888" stroke-width="1" opacity="1"/><line transform="translate(105,0)" x2="0" y2="5" stroke="#888" stroke-width="1" opacity="1"/><line transform="translate(140,0)" x2="0" y2="5" stroke="#888" stroke-width="1" opacity="1"/><line transform="translate(175,0)" x2="0" y2="5" stroke="#888" stroke-width="1" opacity="1"/><line transform="translate(210,0)" x2="0" y2="5" stroke="#888" stroke-width="1" opacity="1"/><line transform="translate(245,0)" x2="0" y2="5" stroke="#888" stroke-width="1" opacity="1"/><line transform="translate(281,0)" x2="0" y2="5" stroke="#888" stroke-width="1" opacity="1"/><line transform="translate(316,0)" x2="0" y2="5" stroke="#888" stroke-width="1" opacity="1"/><line transform="translate(351,0)" x2="0" y2="5" stroke="#888" stroke-width="1" opacity="1"/><line transform="translate(386,0)" x2="0" y2="5" stroke="#888" stroke-width="1" opacity="1"/><line transform="translate(421,0)" x2="0" y2="5" stroke="#888" stroke-width="1" opacity="1"/><line transform="translate(456,0)" x2="0" y2="5" stroke="#888" stroke-width="1" opacity="1"/><line transform="translate(491,0)" x2="0" y2="5" stroke="#888" stroke-width="1" opacity="1"/><line transform="translate(526,0)" x2="0" y2="5" stroke="#888" stroke-width="1" opacity="1"/><line transform="translate(561,0)" x2="0" y2="5" stroke="#888" stroke-width="1" opacity="1"/></g><g class="mark-text role-axis-label" pointer-events="none"><text text-anchor="middle" transform="translate(0,22)" font-family="sans-serif" font-size="12px" fill="#d9d9d9" opacity="1"><tspan>Jan</tspan><tspan x="0" dy="14">2022</tspan></text><text text-anchor="middle" transform="translate(35.0625,22)" font-family="sans-serif" font-size="12px" fill="#d9d9d9" opacity="1">Feb</text><text text-anchor="middle" transform="translate(70.125,22)" font-family="sans-serif" font-size="12px" fill="#d9d9d9" opacity="1">Mar</text><text text-anchor="middle" transform="translate(105.1875,22)" font-family="sans-serif" font-size="12px" fill="#d9d9d9" opacity="1">Apr</text><text text-anchor="middle" transform="translate(140.25,22)" font-family="sans-serif" font-size="12px" fill="#d9d9d9" opacity="1">May</text><text text-anchor="middle" transform="translate(175.3125,22)" font-family="sans-serif" font-size="12px" fill="#d9d9d9" opacity="1">Jun</text><text text-anchor="middle" transform="translate(210.375,22)" font-family="sans-serif" font-size="12px" fill="#d9d9d9" opacity="1">Jul</text><text text-anchor="middle" transform="translate(245.4375,22)" font-family="sans-serif" font-size="12px" fill="#d9d9d9" opacity="1">Aug</text><text text-anchor="middle" transform="translate(280.5,22)" font-family="sans-serif" font-size="12px" fill="#d9d9d9" opacity="1">Sep</text><text text-anchor="middle" transform="translate(315.5625,22)" font-family="sans-serif" font-size="12px" fill="#d9d9d9" opacity="1">Oct</text><text text-anchor="middle" transform="translate(350.625,22)" font-family="sans-serif" font-size="12px" fill="#d9d9d9" opacity="1">Nov</text><text text-anchor="middle" transform="translate(385.6875,22)" font-family="sans-serif" font-size="12px" fill="#d9d9d9" opacity="1">Dec</text><text text-anchor="middle" transform="translate(420.75,22)" font-family="sans-serif" font-size="12px" fill="#d9d9d9" opacity="1"><tspan>Jan</tspan><tspan x="0" dy="14">2023</tspan></text><text text-anchor="middle" transform="translate(455.8125,22)" font-family="sans-serif" font-size="12px" fill="#d9d9d9" opacity="1">Feb</text><text text-anchor="middle" transform="translate(490.875,22)" font-family="sans-serif" font-size="12px" fill="#d9d9d9" opacity="1">Mar</text><text text-anchor="middle" transform="translate(525.9375,22)" font-family="sans-serif" font-size="12px" fill="#d9d9d9" opacity="1">Apr</text><text text-anchor="middle" transform="translate(561,22)" font-family="sans-serif" font-size="12px" fill="#d9d9d9" opacity="1">May</text></g><g class="mark-rule role-axis-domain" pointer-events="none"><line transform="translate(0,0)" x2="561" y2="0" stroke="#888" stroke-width="1" opacity="1"/></g><g class="mark-text role-axis-title" pointer-events="none"><text text-anchor="middle" transform="translate(280.5,75)" font-family="sans-serif" font-size="16px" font-weight="bold" fill="#d9d9d9" opacity="1">Months</text></g></g><path class="foreground" aria-hidden="true" d="" pointer-events="none" display="none"/></g></g><g class="mark-group role-axis" role="graphics-symbol" aria-roledescription="axis" aria-label="Y-axis titled 'Percentage' for a linear scale with values from 0% to 40%"><g transform="translate(0.5,0.5)"><path class="background" aria-hidden="true" d="M0,0h0v0h0Z" pointer-events="none"/><g><g class="mark-rule role-axis-grid" pointer-events="none"><line transform="translate(0,360)" x2="561" y2="0" stroke="#ffffff44" stroke-width="1" stroke-dasharray="3,3" opacity="1"/><line transform="translate(0,315)" x2="561" y2="0" stroke="#ffffff44" stroke-width="1" stroke-dasharray="3,3" opacity="1"/><line transform="translate(0,270)" x2="561" y2="0" stroke="#ffffff44" stroke-width="1" stroke-dasharray="3,3" opacity="1"/><line transform="translate(0,225)" x2="561" y2="0" stroke="#ffffff44" stroke-width="1" stroke-dasharray="3,3" opacity="1"/><line transform="translate(0,180)" x2="561" y2="0" stroke="#ffffff44" stroke-width="1" stroke-dasharray="3,3" opacity="1"/><line transform="translate(0,135)" x2="561" y2="0" stroke="#ffffff44" stroke-width="1" stroke-dasharray="3,3" opacity="1"/><line transform="translate(0,90)" x2="561" y2="0" stroke="#ffffff44" stroke-width="1" stroke-dasharray="3,3" opacity="1"/><line transform="translate(0,45)" x2="561" y2="0" stroke="#ffffff44" stroke-width="1" stroke-dasharray="3,3" opacity="1"/><line transform="translate(0,0)" x2="561" y2="0" stroke="#ffffff44" stroke-width="1" stroke-dasharray="3,3" opacity="1"/></g><g class="mark-rule role-axis-tick" pointer-events="none"><line transform="translate(0,360)" x2="-5" y2="0" stroke="#888" stroke-width="1" opacity="1"/><line transform="translate(0,315)" x2="-5" y2="0" stroke="#888" stroke-width="1" opacity="1"/><line transform="translate(0,270)" x2="-5" y2="0" stroke="#888" stroke-width="1" opacity="1"/><line transform="translate(0,225)" x2="-5" y2="0" stroke="#888" stroke-width="1" opacity="1"/><line transform="translate(0,180)" x2="-5" y2="0" stroke="#888" stroke-width="1" opacity="1"/><line transform="translate(0,135)" x2="-5" y2="0" stroke="#888" stroke-width="1" opacity="1"/><line transform="translate(0,90)" x2="-5" y2="0" stroke="#888" stroke-width="1" opacity="1"/><line transform="translate(0,45)" x2="-5" y2="0" stroke="#888" stroke-width="1" opacity="1"/><line transform="translate(0,0)" x2="-5" y2="0" stroke="#888" stroke-width="1" opacity="1"/></g><g class="mark-text role-axis-label" pointer-events="none"><text text-anchor="end" transform="translate(-7,364)" font-family="sans-serif" font-size="12px" fill="#d9d9d9" opacity="1">0%</text><text text-anchor="end" transform="translate(-7,319)" font-family="sans-serif" font-size="12px" fill="#d9d9d9" opacity="1">5%</text><text text-anchor="end" transform="translate(-7,274)" font-family="sans-serif" font-size="12px" fill="#d9d9d9" opacity="1">10%</text><text text-anchor="end" transform="translate(-7,229)" font-family="sans-serif" font-size="12px" fill="#d9d9d9" opacity="1">15%</text><text text-anchor="end" transform="translate(-7,184)" font-family="sans-serif" font-size="12px" fill="#d9d9d9" opacity="1">20%</text><text text-anchor="end" transform="translate(-7,139)" font-family="sans-serif" font-size="12px" fill="#d9d9d9" opacity="1">25%</text><text text-anchor="end" transform="translate(-7,94.00000000000004)" font-family="sans-serif" font-size="12px" fill="#d9d9d9" opacity="1">30%</text><text text-anchor="end" transform="translate(-7,49.00000000000004)" font-family="sans-serif" font-size="12px" fill="#d9d9d9" opacity="1">35%</text><text text-anchor="end" transform="translate(-7,4)" font-family="sans-serif" font-size="12px" fill="#d9d9d9" opacity="1">40%</text></g><g class="mark-rule role-axis-domain" pointer-events="none"><line transform="translate(0,360)" x2="0" y2="-360" stroke="#888" stroke-width="1" opacity="1"/></g><g class="mark-text role-axis-title" pointer-events="none"><text text-anchor="middle" transform="translate(-55.017578125,180) rotate(-90) translate(0,-3)" font-family="sans-serif" font-size="16px" font-weight="bold" fill="#d9d9d9" opacity="1">Percentage</text></g></g><path class="foreground" aria-hidden="true" d="" pointer-events="none" display="none"/></g></g></g><path class="foreground" aria-hidden="true" d="" display="none"/></g></g></g></svg>